PathFileType	4	(X/Y/Z)	C:/Users/beibeiliu/ov580/test_trc/capture2\sequence.5_training_dense_left.trc
DataRate	CameraRate	NumFrames	NumMarkers	Units	OrigDataRate	OrigDataStartFrame	OrigNumFrames
120	120	18	19	mm	120	1	350
Frame#	Time	ThumbCMC			ThumbMCP			ThumbIP			ThumbTip			IndexMCP			IndexPIP			IndexTip			MiddleMCP			MiddlePIP			MiddleTip			RingMCP			RingPIP			RingTip			PinkyMCP			PinkyPIP			PinkyTip			BackHand1			BackHand2			BackHand3	
		X0	Y0	Z0	X1	Y1	Z1	X2	Y2	Z2	X3	Y3	Z3	X4	Y4	Z4	X5	Y5	Z5	X6	Y6	Z6	X7	Y7	Z7	X8	Y8	Z8	X9	Y9	Z9	X10	Y10	Z10	X11	Y11	Z11	X12	Y12	Z12	X13	Y13	Z13	X14	Y14	Z14	X15	Y15	Z15	X16	Y16	Z16	X17	Y17	Z17	X18	Y18	Z18	
0	0	-116.812	44.4066	-21.162	-100.228	28.7211	-35.9531	-78.9078	23.0882	-53.0893	-63.259	16.5333	-71.8114	-125.667	53.9602	-96.1517	-118.569	51.3564	-119.755	-115.557	52.3509	-149.36	-146.723	54.9459	-106.073	-147.12	52.7153	-132.492	-148.3	49.5398	-160.881	-166.411	50.1773	-105.428	-169.318	47.9884	-126.204	-171.584	44.4403	-152.482	-191.676	42.0017	-93.4643	-195.713	38.2913	-110.68	-199.993	42.3507	-135.178	-172.12	62.9191	-57.4154	-176.44	67.4964	-23.2334	-143.584	67.3554	-38.9195	
1	0.00833333	-118.908	44.573	-24.1959	-99.9376	30.3123	-37.9557	-84.8643	23.3115	-56.301	-65.3037	16.725	-72.6465	-126.985	55.1159	-98.4069	-120.829	52.8605	-124.65	-118.575	52.6929	-150.936	-147.165	56.2666	-109.015	-147.66	53.9916	-130.523	-149.998	50.2715	-161.568	-172.158	51.3529	-104.181	-169.607	48.1418	-126.978	-172.307	45.7565	-157.818	-190.125	42.3649	-89.9066	-198.128	39.2408	-116.076	-204.419	43.3076	-134.057	-175.811	62.7862	-54.205	-176.143	68.9659	-26.2907	-143.585	67.2859	-40.9163	
2	0.0166667	-120.434	44.1095	-22.1716	-103.553	30.0155	-35.8414	-81.7311	22.5196	-58.024	-69.9166	17.1271	-69.822	-122.282	54.7414	-101.144	-121.987	52.1194	-122.225	-115.925	53.0322	-145.94	-150.569	56.7057	-105.696	-148.806	53.6509	-131.587	-147.882	50.7679	-159.546	-167.927	51.4548	-101.872	-170.597	47.4773	-131.377	-174.017	45.0742	-156.733	-192.522	43.3818	-91.3576	-198.928	38.4156	-113.809	-203.712	40.4154	-134.797	-177.249	63.6089	-54.834	-176.421	67.3781	-26.2595	-146.376	67.3276	-38.0962	
3	0.025	-117.64	43.6344	-25.5659	-104.471	28.9937	-38.3082	-85.0709	22.1009	-56.0429	-70.6731	16.3987	-67.6365	-125.824	54.2288	-100.124	-118.101	52.707	-124.223	-122.091	52.3872	-144.946	-148.911	56.1269	-103.748	-149.667	53.1972	-133.091	-151.247	50.3124	-159.721	-167.995	51.6506	-104.089	-171.922	47.8166	-129.679	-172.085	45.6356	-151.384	-188.65	42.8373	-89.8439	-195.049	40.1599	-113.517	-204.392	42.9918	-134.27	-175.871	62.2799	-57.005	-180.925	67.4195	-27.332	-145.316	67.1128	-40.2746	
4	0.0333333	-123.026	43.5262	-21.9443	-102.941	29.1624	-38.9391	-83.2179	22.3609	-53.3638	-68.0769	16.2954	-67.8876	-123.41	55.0826	-95.8447	-120.129	53.1016	-118.852	-117.15	53.7427	-143.372	-146.43	57.4135	-108.899	-146.78	52.642	-134.75	-148.704	51.0604	-157.634	-172.714	50.6356	-103.324	-170.458	48.0527	-130.788	-173.746	44.4029	-155.747	-194.177	42.9588	-92.1107	-193.713	39.9576	-112.16	-204.274	43.4243	-134.625	-176.804	64.2709	-56.345	-175.374	68.3578	-27.9457	-146.289	66.2668	-39.9037	
5	0.0416667	-121.862	43.8864	-26.0124	-104.253	29.9631	-38.3725	-84.6197	22.7676	-57.4797	-67.3917	16.3872	-68.7615	-123	55.1683	-94.6706	-122.592	52.7159	-123.441	-117.997	53.3334	-143.774	-150.774	56.14	-108.192	-147.911	53.2553	-132.094	-151.964	50.1453	-158.997	-173.365	50.7403	-103.549	-173.659	47.4775	-130.686	-175.382	44.5085	-152.806	-192.015	44.02	-91.8389	-194.11	39.9035	-110.193	-204.713	41.454	-133.837	-174.116	64.408	-52.6407	-178.271	67.8941	-26.2447	-143.449	66.7955	-38.3215	
6	0.05	-118.882	44.0841	-25.8184	-101.25	29.1858	-38.9851	-86.6367	20.9719	-53.8696	-69.8582	15.8752	-69.0236	-126.246	54.8245	-100.776	-119.517	52.0458	-119.477	-120.326	52.9722	-144.834	-151.344	55.7103	-109.219	-147.543	52.6593	-130.122	-149.583	51.0478	-160.97	-168.551	50.9434	-101.371	-172.434	47.5672	-127.898	-171.544	46.0272	-156.654	-194.084	43.2383	-92.202	-197.11	39.5478	-115.65	-204.633	42.5929	-135.308	-172.71	62.2285	-52.3417	-179.36	68.0334	-25.0028	-146.341	68.4475	-37.9633	
7	0.0583333	-119.462	44.6886	-21.4345	-102.617	28.702	-36.3668	-81.4617	21.8812	-56.318	-66.322	15.8497	-67.4317	-125.059	55.6672	-99.4805	-118.182	52.265	-124.329	-121.028	53.6119	-145.164	-149.275	55.4213	-108.973	-148.333	51.8736	-131.147	-145.854	49.9426	-163.382	-168.171	51.3766	-102.655	-174.709	47.3833	-128.464	-174.254	45.2763	-152.993	-193.512	44.2562	-94.5458	-195.328	39.8477	-111.989	-203.861	42.917	-137.981	-177.861	62.6072	-52.8676	-178.697	67.6777	-26.8158	-142.998	69.225	-38.7363	
8	0.0666667	-119.581	43.5796	-24.2205	-102.968	28.0926	-39.2497	-86.0648	21.3014	-55.7935	-67.1104	15.2557	-71.9747	-125.214	55.9302	-96.9942	-119.458	53.3161	-125.089	-115.332	53.6617	-149.11	-148.747	56.284	-105.456	-150.59	52.189	-134.843	-148.288	49.6959	-160.849	-169.968	51.6158	-104.41	-173.744	47.8907	-128.02	-170.386	45.4003	-155.523	-193.366	43.6046	-89.9649	-194.851	40.0125	-110.902	-204.046	43.6249	-135.514	-175.12	61.882	-54.3117	-179.849	66.9747	-23.8966	-145.209	66.972	-37.6924	
9	0.075	-122.274	44.3503	-22.5556	-99.5095	28.9427	-36.939	-82.1636	22.7563	-52.0889	-70.8733	15.0906	-69.0969	-123.847	56.1895	-97.6882	-122.3	54.0139	-120.332	-119.348	54.8164	-146.372	-146.951	57.2216	-107.453	-146.115	53.7121	-132.327	-147.029	49.6276	-159.371	-166.187	52.531	-105.252	-173.906	48.8862	-126.508	-171.064	45.1233	-153.839	-188.382	43.8013	-89.4927	-195.745	40.2257	-113.859	-201.273	42.9395	-135.457	-178.041	62.6612	-54.0444	-179.46	67.704	-28.0485	-144.63	67.93	-36.6464	
10	0.0833333	-118.905	45.2965	-24.1961	-100.925	30.0558	-37.1197	-82.4668	22.7855	-54.8078	-66.1182	16.8388	-70.1831	-125.123	55.5685	-99.0809	-118.424	53.4654	-121.162	-118.726	53.8074	-148.83	-147.212	57.065	-109.228	-146.113	52.764	-131.558	-149.906	48.3963	-159.678	-171.536	51.1689	-103.768	-172.078	48.5915	-127.087	-169.181	45.771	-155.485	-187.45	43.8054	-90.1198	-193.996	41.2814	-113.713	-200.003	42.4313	-135.627	-176.856	62.7515	-53.9089	-177.758	66.6105	-29.0555	-145.633	68.7839	-38.2792	
11	0.0916667	-121.642	44.7597	-22.034	-97.7157	30.91	-34.905	-80.1571	24.2784	-53.2894	-68.8159	17.8505	-69.878	-122.327	56.5864	-99.2612	-117.102	54.1905	-123.59	-118.234	54.4417	-145.132	-146.201	57.7296	-106.18	-147.338	53.9609	-133.895	-147.18	48.7051	-163.608	-168.889	51.866	-101.79	-167.591	48.9339	-126.418	-170.315	46.0612	-152.253	-185.29	45.6516	-95.3118	-190.625	41.4696	-111.834	-201.306	43.462	-137.288	-175.068	64.9415	-56.0166	-179.036	68.6527	-27.5046	-141.187	67.3331	-39.3877	
12	0.1	-120.687	45.9662	-26.22	-102.776	29.8448	-37.9241	-79.8044	23.4035	-53.0925	-65.112	18.5834	-67.9245	-120.959	57.3767	-99.8813	-114.833	55.2338	-122.102	-116.395	55.1394	-143.773	-143.712	57.943	-107.922	-146.015	53.4264	-135.126	-147.579	49.0246	-159.754	-169.609	52.585	-103.477	-165.414	49.152	-129.478	-168.139	45.707	-153.849	-188.417	44.7189	-90.8158	-191.817	41.4734	-111.074	-198.737	45.1044	-138.122	-170.169	63.0487	-56.6566	-176.199	68.3685	-24.8395	-143.261	67.5714	-37.1271	
13	0.108333	-119.417	44.8232	-21.666	-97.8736	30.1619	-37.2324	-79.2328	23.7418	-55.0047	-64.8201	17.0007	-69.4503	-125.313	57.044	-96.7487	-118.134	55.7286	-119.413	-116.367	55.6171	-147.41	-145.392	58.0592	-109.522	-144.067	52.7964	-134.276	-144.748	48.0181	-158.826	-166.541	52.4553	-105.16	-167.551	48.4417	-125.828	-166.898	45.0601	-152.016	-185.241	45.8036	-94.9478	-192.66	40.9229	-116.343	-197.037	44.369	-137.514	-171.252	62.4784	-56.3523	-175.873	69.4543	-27.2111	-143.5	70.1631	-35.2013	
14	0.116667	-117.472	45.6842	-22.1721	-99.7234	30.0419	-34.4469	-80.0503	22.4043	-52.6211	-67.6514	16.1562	-69.3108	-125.051	57.2584	-99.6077	-119.594	55.0134	-121.245	-116.817	54.6935	-146.581	-144.439	56.8677	-106.072	-143.355	51.6208	-132.482	-146.178	45.2845	-163.759	-166.213	51.9113	-104.048	-167.524	47.7982	-128.2	-165.792	43.3983	-151.346	-189.573	44.551	-94.6996	-192.815	40.8734	-111.427	-199.609	44.5298	-138.759	-175.814	63.5794	-53.6812	-175.214	66.2438	-27.003	-144.609	68.8554	-37.7388	
15	0.125	-117.279	44.7392	-22.9326	-99.7481	28.8582	-38.5558	-79.1863	21.822	-58.2866	-67.3998	14.2884	-68.7673	-122.55	58.5962	-97.7566	-115.394	56.4569	-121.327	-118.022	56.8359	-149.649	-147.429	58.1454	-105.447	-142.384	51.7676	-135.717	-144.435	44.2654	-160.582	-167.567	52.8601	-102.573	-166.171	47.5272	-126.787	-167.398	41.347	-153.009	-189.466	45.1611	-93.5257	-189.754	41.2236	-113.405	-194.745	43.4888	-138.588	-172.448	63.0476	-55.8001	-175.285	67.1283	-25.8838	-141.69	70.8022	-39.7337	
16	0.133333	-116.868	44.1607	-20.9764	-97.8768	27.3446	-41.017	-82.8591	20.1021	-57.3959	-68.3298	13.5378	-76.1989	-123.384	60.5251	-94.7042	-118.579	57.9501	-123.396	-117.341	59.016	-146.131	-148.441	59.2369	-103.202	-146.542	52.3903	-133.868	-145.316	38.7727	-159.265	-163.759	54.5429	-102.977	-167.614	48.5383	-129.884	-165.135	36.5839	-157.007	-186.972	46.9058	-94.03	-189.363	42.8957	-113.457	-192.339	40.105	-138.373	-173.252	64.7056	-50.2715	-173.845	68.5702	-26.1031	-143.105	70.5719	-38.7754	
17	0.141667	-115.854	43.9863	-21.8774	-102.424	26.5782	-37.3768	-85.7171	19.101	-57.3709	-72.5372	12.485	-77.5148	-120.845	64.7709	-91.4914	-118.807	63.4723	-121.628	-117.088	62.7871	-144.468	-146.815	63.7326	-105.861	-143.51	53.7655	-132.113	-143.415	25.8407	-155.509	-167.009	58.6285	-102.024	-167.084	50.375	-127.812	-156.485	28.3265	-149.16	-184.714	50.1918	-89.8589	-188.676	44.1624	-117.064	-187.065	35.2926	-137.98	-171.567	66.4675	-51.2054	-176.901	67.769	-24.7803	-145.513	70.8829	-34.9568	
